<svg xmlns="http://www.w3.org/2000/svg" viewBox="0 0 15 28" fill="currentColor"><path fill-rule="evenodd" d="M13.82.005L10.376 0c-3.87 0-6.371 2.613-6.371 6.657v3.07H.54a.546.546 0 0 0-.541.55v4.449c0 .303.243.55.54.55h3.465V26.5c0 .303.242.55.542.55h4.517c.3 0 .542-.247.542-.55V15.277h4.05c.3 0 .54-.248.54-.551l.003-4.448a.562.562 0 0 0-.159-.39.536.536 0 0 0-.383-.161h-4.05V7.125c0-1.251.292-1.886 1.891-1.886l2.321-.001c.3 0 .54-.248.54-.551V.557a.547.547 0 0 0-.539-.552z" clip-rule="evenodd"/></svg>