<svg xmlns="http://www.w3.org/2000/svg" viewBox="0 0 16 30" fill="currentColor"><path fill-rule="evenodd" d="M2.443.606C1.231.606.248 1.668.248 2.984v24.61c0 1.314.982 2.379 2.195 2.379h10.932c1.212 0 2.195-1.063 2.195-2.378V2.985c0-1.314-.982-2.38-2.195-2.38H2.443zm-.759 3.851v21.664h12.45V4.457H1.684zM7.91 29.01a.96.96 0 0 0 .958-.963.96.96 0 0 0-.958-.963.96.96 0 0 0-.958.963.96.96 0 0 0 .958.963zM5.994 2.531c0 .266.164.482.381.482h3.068c.21 0 .381-.223.381-.482 0-.265-.164-.481-.381-.481H6.375c-.21 0-.381.223-.381.481z" clip-rule="evenodd"/></svg>