<svg xmlns="http://www.w3.org/2000/svg" viewBox="0 0 28 24" fill="currentColor"><path fill-rule="evenodd" d="M24.937 3.33A5.982 5.982 0 0 0 26.484.824c.086-.274-.207-.511-.45-.365-.897.542-1.863.949-2.872 1.209a.754.754 0 0 1-.682-.173A5.814 5.814 0 0 0 18.592 0c-.62 0-1.246.098-1.86.293-1.906.601-3.375 2.202-3.837 4.176a6.497 6.497 0 0 0-.139 2.203c.01.083-.03.14-.053.168a.216.216 0 0 1-.162.075c-4.19-.396-7.95-2.442-10.608-5.762a.304.304 0 0 0-.504.04 6.07 6.07 0 0 0-.795 3.008c0 1.622.64 3.15 1.75 4.265a5.208 5.208 0 0 1-1.34-.529.307.307 0 0 0-.455.27c-.03 2.41 1.356 4.553 3.43 5.519a5.242 5.242 0 0 1-1.114-.095.31.31 0 0 0-.35.403c.673 2.141 2.484 3.72 4.65 4.078a10.702 10.702 0 0 1-6.072 1.878H.454a.451.451 0 0 0-.44.345.477.477 0 0 0 .223.524 15.902 15.902 0 0 0 8.102 2.225c2.49 0 4.82-.504 6.924-1.496a15.316 15.316 0 0 0 5.067-3.866 17.016 17.016 0 0 0 3.102-5.292c.69-1.876 1.054-3.879 1.054-5.79v-.091c0-.307.136-.596.374-.793a11.749 11.749 0 0 0 2.336-2.61c.171-.261-.099-.588-.38-.46-.605.273-1.234.488-1.879.645z" clip-rule="evenodd"/></svg>